<?xml version="1.0" encoding="UTF-8"?>
<svg id="Calque_1" data-name="Calque 1" xmlns="http://www.w3.org/2000/svg" viewBox="0 0 382.28 373.63">
  <defs>
    <style>
      .cls-1 {
        fill: #e4e1d8;
      }

      .cls-1, .cls-2, .cls-3, .cls-4, .cls-5, .cls-6, .cls-7, .cls-8, .cls-9 {
        stroke-miterlimit: 10;
      }

      .cls-1, .cls-2, .cls-3, .cls-4, .cls-5, .cls-6, .cls-8, .cls-9 {
        stroke: #000;
      }

      .cls-1, .cls-2, .cls-9 {
        stroke-width: 2px;
      }

      .cls-2, .cls-4, .cls-6, .cls-7 {
        fill: none;
      }

      .cls-10 {
        fill: #000;
      }

      .cls-10, .cls-11, .cls-12, .cls-13 {
        stroke-width: 0px;
      }

      .cls-3 {
        fill: #fffdfe;
      }

      .cls-11 {
        fill: #0c090c;
      }

      .cls-5 {
        fill: #ab332c;
      }

      .cls-6 {
        stroke-width: .75px;
      }

      .cls-7 {
        stroke: #fff;
      }

      .cls-8 {
        fill: #4f8ecc;
      }

      .cls-12 {
        fill: #f1cd6e;
      }

      .cls-13 {
        fill: #fff;
      }

      .cls-9 {
        fill: #4e8dcb;
      }
    </style>
  </defs>
  <g>
    <path class="cls-10" d="M78.85,222.38s-1-10.68-11.97-3.16S-3.04,369.5.12,372.69s382.15-2.75,382.15-2.75l-78.33-95.97s-138.46,29.91-225.1-51.59Z"/>
    <path class="cls-13" d="M283.56,296.23s19.33,22.68,13.79,30.59c0,0,14.51-50.11,8.97-51.69s-20.46,24.65-22.76,23.01"/>
    <path class="cls-13" d="M200.3,295.08s-6.73,26.79,2.18,39.45,11.27,18.79,11.27,18.79c0,0-8.11,2.77-9.3,2.18s.99,13.05,10.29,12.86,18.99,1.19,22.95,0,12.26-6.53,7.91-11.67-8.51-2.37-7.91-6.33,7.01-9.69,9.14-11.87,24.09-5.93,23.5-10.09,20.37-22.55,10.68-27.3-59.34.22-80.7-6.02Z"/>
    <path class="cls-13" d="M78.45,206.99s-20.97,13.51-29.27,46.25c-1.13,4.47,108.79,60.53,117.1,69.63s8.88,19.38,16.7,15.82,15.21-13.85,15.21-13.85c0,0,18.73-26.9,11.6-28.09s-110.08-52.97-131.34-89.76Z"/>
    <path class="cls-2" d="M244.87,320.09s1.19,7.12,2.44,9.76,2.24,5.08,1.91,7.05-.33,2.5-.33,2.5"/>
    <line class="cls-2" x1="229.18" y1="320.09" x2="229.18" y2="369.94"/>
    <circle class="cls-10" cx="224.5" cy="347.65" r="1.98"/>
    <circle class="cls-10" cx="224.32" cy="328.81" r="1.8"/>
    <circle class="cls-10" cx="224.76" cy="367.83" r="1.32"/>
    <path class="cls-10" d="M225.02,298.73s-45.3-6.92-49.25,5.74-5.93,16.81,0,20.77,9.89,5.54,17.01,2.57,27.89-10.29,31.25-9.3,5.14,6.53,11.08,4.15,10.88-2.18,19.58.4,26.62,8.7,32.69,4.95,8.38-11.67,7.72-17.21c0,0-11.21-15.1-30.85-13.12s-22.16,2.66-23.54.94-4.94-3.7-15.69.12Z"/>
    <g>
      <path class="cls-1" d="M272.34,87.48s31.78-5.54,39.03-14.11,13.58-32.57,15.43-44.44c2.64-11.08,2.9-15.69,2.9-15.69,0,0,.26-3.56,2.9,1.85s12.13,30.86,11.34,43.78.4,35.34-22.68,52.75l-13.1,6.99s-45.32-18.2-35.83-31.12Z"/>
      <path class="cls-9" d="M155.99,58.07s-21.63,11.08-35.87,31.65-36.92,79.65-39.03,88.62-7.17,55.74-6.74,60.44c3.31,35.83,52.59,39.78,104.29,51.39s161.67,30.07,171.17,17.93,8.83-40.88,5.04-51.96c-.69-2.01-23.33-25.43-28.75-32.97-10.29-14.32-4.7-17.73-7.12-26.37-3.69-13.19-8.44-17.93-10.55-22.15s7.38-6.86,8.44-11.6.24-30.07,2.76-34.81-7.5-10.55-12.78-14.24-13.19-15.82-18.46-21.1-6.33-11.6-12.13-16.35-27.96-22.15-44.31-18.46-19.98,9.43-19.98,9.43c0,0-6.53-12.92-55.98-9.43Z"/>
      <path class="cls-4" d="M237.09,161.85c.79-.99-2.57-9.3-14.44-25.71s-47.27-17.21-60.92-17.8-24.13,12.26-29.67,18.4-7.71-.4-9.89-4.15,12.26-12.66,12.26-12.66c0,0,23.03-14.64,45.14-10.29s49.8,15.23,55.54,27.1,8.9,19.98,8.9,19.98"/>
      <path class="cls-4" d="M189.27,111.87s18.55-9.56,34.97-.85c10.16,5.39,20.18,25.52,19.78,28.88"/>
      <path class="cls-4" d="M211.97,68.49s2.18,9.1,1.98,11.08,22.35,31.45,19.38,39.56"/>
      <path class="cls-4" d="M157.05,86.82s10.15-7.38,19.25-8.44,36.05-1.58,37.61,0"/>
      <path class="cls-4" d="M230.1,84.71s38.71-8.34,56.67,6.38"/>
      <path class="cls-4" d="M134.5,137.59s85-1.39,85.82-4.19"/>
      <path class="cls-3" d="M140.33,137.72l79.98-3.3s21.26,26.11,15.59,28.35-32.75,6.86-46.64,1.05-49.07-22.81-48.93-26.11Z"/>
      <path class="cls-1" d="M116.75,95.96s-68.17-6.88-76.08-49.85L32.76,3.15s-18.79,38.22-15.33,58,16.32,60.92,49.45,67.25,32.54,6.02,32.54,6.02"/>
      <path class="cls-4" d="M146.23,155.92s25.34,19.25,47.88,18.73,38.63-.26,41.53-3.43,7.12-4.21,7.38-5.93"/>
      <path class="cls-4" d="M256.61,173.19s15.96,4.62,20.18,4.35,2.11-.53,2.11-.53"/>
      <path class="cls-4" d="M293,175.37s13.85-.2,14.51-2.18"/>
      <path class="cls-4" d="M291.42,182.95s14.32-.18,16.09-6.07"/>
      <path class="cls-4" d="M251.86,173.19s23.47,10.42,27.56,18.33"/>
      <path class="cls-4" d="M228.11,173.45s-19.24,29.02-41.26,31"/>
      <path class="cls-4" d="M111.55,205.1s10.55-10.29,21.1-7.91"/>
      <path class="cls-4" d="M119.07,185.98s8.18-2.37,10.95,0"/>
      <path class="cls-11" d="M167.07,136.99s-5.78,13.74-4.01,14.62,27.03,12.6,28.25,12.96,10.02,2.14,10.76,1.88,9.12-23.83-2.29-30.97l-32.7,1.5Z"/>
      <circle class="cls-13" cx="192.52" cy="149.79" r="5.67"/>
      <circle class="cls-13" cx="174.68" cy="142.96" r="3.96"/>
      <circle class="cls-13" cx="175.57" cy="152.26" r="3.07"/>
      <path class="cls-4" d="M256.61,132.38s32.9-28.09,62.18-6.33"/>
      <path class="cls-4" d="M303.95,113.59s-10.88-3.36-33.63,2.18"/>
      <path class="cls-4" d="M247.9,159.08s31.91-58.68,67.12-22.81"/>
      <path class="cls-3" d="M316.87,154.47s-42.59,22.81-67.52,5.8c0,0,9.76-32.81,35.74-24.78s31.78,10.27,31.78,10.27v8.7Z"/>
      <path class="cls-11" d="M273.98,136.93c-4.96.75-14.24,5.14-13.05,15.23s2.71,12.41,7.09,13.65,22.65-.95,24.99-2.2c0,0,5.66-11.17-1.58-21.73-2.56-3.74-2.37-7.23-17.44-4.94Z"/>
      <circle class="cls-13" cx="287.4" cy="152.55" r="6.53"/>
      <circle class="cls-13" cx="270.98" cy="145.9" r="3.69"/>
      <circle class="cls-13" cx="272.4" cy="156.54" r="3.33"/>
      <path class="cls-5" d="M357.23,284.09s-.92,13.32-11.08,14.64-48.13,2.11-56.04.92-27.96-9.23-28.75-2.51-1.71,6.59,5.27,9.63,30.33,9.63,36.4,11.34,31.25,3.43,38.9,0,14.9-10.02,15.3-12.66-1.71-5.41,0-8.57,5.67-13.85,0-12.79Z"/>
      <path class="cls-4" d="M268.88,298.73s35.7,17.81,87.68.8"/>
      <path class="cls-10" d="M291.8,260.33s-3.36,1.71-3.69,4.15-1.45,8.64,0,10.68,3.63,3.56,7.05,2.9,5.87-1.98,6.46-3.43,1.05-2.55,1.19-5.36-.66-6.37-1.58-7.69-2.7-3.89-9.43-1.25Z"/>
      <path class="cls-10" d="M327.05,256.08s-3.36,1.71-3.69,4.15-1.45,8.64,0,10.68,3.63,3.56,7.05,2.9,5.87-1.98,6.46-3.43,1.05-2.55,1.19-5.36-.66-6.37-1.58-7.69-2.7-3.89-9.43-1.25Z"/>
    </g>
    <path class="cls-4" d="M77.12,206.99s-23.39,21.5-28.54,46.2"/>
  </g>
  <path class="cls-12" d="M191.51,245.31s-69.68,4.5-82.73,3.58-13.93-1.79-13.93-1.79c0,0-.83,12.02,2.72,16.53s11.6,11.53,13.98,18.04c3.43,5.75,12.55,20.34,17.81,20.69s16.09-2.24,24.96-7.28,27.26-18.08,27.26-18.08c0,0,8.06-7.43,9.93-31.69Z"/>
  <path class="cls-13" d="M127.24,262.86s6.59,2.06,8.84.77,7.95-3.95,7.54-1.96,2.09,6.6-3.98,8.58-14.9,3.14-18.2,2.95-5.41-3.35-5.41-3.35l11.21-6.99Z"/>
  <path class="cls-13" d="M185.66,256.4c-.57.32-7.38,4.88-13.05,6.33s-7.12,7.12-5.54,9.89,15.03,1.85,17.01-2.64,5.56-15.82,1.58-13.58Z"/>
  <path class="cls-7" d="M100.8,225.74s-13.39,29.8-.99,41.14,19.58,34.66,31.65,35.93,45.67-20.5,51.51-27.22,10.66-34.02,9.54-41.54,9.76-12.07-91.71-8.31Z"/>
  <path class="cls-13" d="M114.35,230.09c-2.21,0-5.93-2.68-6.33,0s-1.09,11.18-.59,14.25,3.55,5.67,4.84,4.67,3.17-4.86,3.17-7.24,1.29-11.68-1.09-11.68Z"/>
  <path class="cls-8" d="M121.94,254.93s-25.29,3.57-29.64,20.13-7.52,32.14-9.89,37.01-2.37,11.19-2.37,11.19c0,0,12.66,19.12,24.53,26.37s14.51,8.04,14.51,8.04c0,0,17.54-3.82,19.12-10.02s2.31-8.18,2.14-10.95,32.3-18.83,31.69-24.64-3.77-9.53-7.73-9.25,11.08-7.24,11.27-11.2,6.92-9.78,0-11.42-48.07,22.95-51.03,20.74-3.6-7.75,4.82-8.93,32.56-12.53,33.35-16.95,2.37-10.08-2.38-10.61-50.51,20.04-48.79,15.29,6.73-9.41,10.55-11.03,12.48-10.1-.16-13.78Z"/>
  <path class="cls-10" d="M137.56,314.56c3.07-.87,6.12-1.82,9.15-2.82,4.88-1.6,9.87-3.24,14.43-5.63,1.32-.69,3.24-1.61,3.76-3.14.26-.76-.95-1.09-1.21-.33-.38,1.11-2.24,1.9-3.19,2.39-2.09,1.1-4.3,1.99-6.5,2.83-4.48,1.71-9.05,3.19-13.65,4.57-1.04.31-2.08.63-3.13.92-.77.22-.44,1.43.33,1.21h0Z"/>
  <path class="cls-6" d="M111.55,279.74s-2.54,1.09-5.41,3.86"/>
</svg>